<?xml version="1.0" standalone="no"?>
<!DOCTYPE svg PUBLIC "-//W3C//DTD SVG 20010904//EN"
 "http://www.w3.org/TR/2001/REC-SVG-20010904/DTD/svg10.dtd">
<svg version="1.0" xmlns="http://www.w3.org/2000/svg"
 width="1472.000000pt" height="1472.000000pt" viewBox="0 0 1472.000000 1472.000000"
 preserveAspectRatio="xMidYMid meet">
<metadata>
Created by potrace 1.11, written by Peter Selinger 2001-2013
</metadata>
<g transform="translate(0.000000,1472.000000) scale(0.100000,-0.100000)"
fill="#000000" stroke="none">
<path d="M4688 14244 c-3 -2 -25 -7 -49 -9 -24 -3 -62 -8 -84 -11 -22 -3 -50
-7 -62 -8 -13 0 -23 -4 -23 -7 0 -3 -6 -6 -12 -6 -53 -2 -301 -75 -325 -95 -7
-6 -13 -8 -13 -4 0 4 -13 0 -29 -8 -16 -9 -31 -12 -35 -9 -3 4 -6 1 -6 -5 0
-7 -7 -12 -16 -12 -15 0 -213 -97 -224 -109 -3 -3 -21 -15 -40 -25 -64 -35
-130 -79 -130 -88 0 -4 -3 -7 -7 -6 -7 3 -64 -36 -100 -67 -6 -5 -30 -26 -54
-45 -95 -78 -292 -286 -313 -331 -5 -10 -12 -19 -16 -19 -14 0 -190 -275 -190
-296 0 -7 -3 -14 -7 -16 -12 -5 -43 -64 -43 -81 0 -8 -7 -20 -15 -27 -9 -7
-13 -15 -11 -18 3 -2 -3 -21 -14 -42 -17 -33 -65 -162 -75 -200 -2 -8 -11 -40
-20 -70 -9 -30 -18 -66 -21 -80 -3 -14 -7 -33 -10 -42 -7 -23 -12 -54 -18
-102 -3 -22 -8 -52 -11 -66 -23 -110 -24 -478 -1 -595 3 -18 18 -114 22 -140
0 -5 3 -17 6 -25 5 -13 24 -93 32 -132 2 -7 6 -20 9 -28 3 -8 15 -44 26 -80
106 -349 366 -734 666 -985 26 -22 58 -50 71 -62 13 -12 24 -20 24 -16 0 3 19
-10 43 -29 23 -19 60 -45 82 -58 22 -13 42 -26 45 -29 3 -4 19 -13 35 -21 17
-8 32 -18 35 -21 7 -9 257 -130 273 -133 6 -1 18 -5 24 -9 7 -5 21 -10 30 -12
10 -3 45 -14 78 -25 94 -33 232 -67 340 -85 6 -1 12 -3 15 -4 3 -1 25 -4 50
-7 25 -2 68 -6 95 -9 62 -6 316 -7 370 -1 141 15 169 19 250 36 28 6 61 13 75
15 110 23 411 129 418 147 2 4 12 8 22 8 9 0 23 7 30 15 6 8 15 13 18 12 4 -1
47 21 95 48 49 28 97 54 108 60 10 5 19 13 19 17 0 5 7 8 15 8 8 0 15 5 15 10
0 6 6 10 14 10 8 0 16 3 18 8 2 4 39 34 83 67 80 61 299 272 345 333 14 19 35
45 48 58 12 14 22 28 22 32 1 4 14 23 30 42 17 19 30 40 30 47 0 7 3 13 8 13
7 0 45 62 42 69 -1 2 3 7 8 10 18 11 184 345 181 364 0 1 5 16 11 32 7 17 13
37 15 45 2 8 13 45 25 82 24 79 58 233 65 298 3 25 7 56 10 70 3 14 7 87 10
162 2 76 6 142 10 148 3 5 3 10 -2 10 -4 0 -8 24 -9 53 -1 51 -10 153 -18 192
-2 11 -7 40 -11 65 -18 109 -59 273 -85 335 -5 11 -14 38 -21 60 -7 22 -20 55
-30 73 -10 17 -16 32 -14 32 9 0 -122 246 -165 311 -22 33 -40 63 -40 65 0 3
-6 11 -12 18 -7 7 -22 25 -33 41 -80 112 -253 294 -370 390 -103 84 -104 85
-114 85 -5 0 -11 3 -13 8 -9 21 -277 182 -302 182 -9 0 -16 5 -16 11 0 5 -4 7
-10 4 -5 -3 -10 -1 -10 4 0 6 -7 11 -15 11 -8 0 -23 4 -33 10 -35 19 -111 50
-124 50 -8 0 -18 4 -23 9 -12 12 -181 63 -249 76 -12 2 -21 4 -21 5 0 1 -11 3
-25 6 -71 11 -149 24 -180 30 -42 8 -486 15 -492 8z"/>
<path d="M4868 9364 c-4 -3 -51 -7 -105 -9 -106 -4 -146 -8 -268 -30 -86 -16
-99 -19 -160 -35 -22 -6 -51 -13 -64 -16 -13 -3 -34 -10 -45 -16 -12 -6 -23
-11 -26 -10 -14 5 -206 -71 -292 -114 -27 -13 -51 -24 -54 -23 -4 0 -10 -3
-13 -8 -3 -5 -17 -14 -31 -21 -81 -41 -244 -152 -349 -237 -35 -29 -232 -224
-266 -265 -77 -90 -188 -251 -230 -330 -16 -30 -38 -68 -50 -85 -11 -16 -19
-31 -17 -33 1 -1 -4 -15 -12 -30 -26 -50 -95 -222 -89 -222 3 0 1 -6 -5 -12
-6 -7 -11 -17 -11 -23 -1 -5 -7 -30 -15 -55 -8 -25 -18 -58 -22 -75 -4 -16 -8
-32 -9 -35 -1 -5 -20 -89 -31 -140 -6 -32 -12 -71 -20 -140 -9 -72 -15 -441
-7 -453 3 -5 7 -32 9 -60 5 -75 55 -324 69 -347 3 -6 8 -20 11 -32 9 -39 12
-53 14 -53 1 0 3 -7 5 -15 2 -8 9 -28 16 -45 7 -16 13 -32 14 -35 1 -3 7 -18
13 -33 7 -16 12 -30 12 -32 0 -8 63 -141 73 -154 6 -7 12 -19 13 -27 1 -7 11
-26 21 -41 10 -15 25 -41 33 -58 8 -16 22 -38 31 -48 9 -9 22 -30 30 -45 8
-14 19 -34 26 -42 7 -8 29 -39 51 -68 48 -64 131 -161 192 -222 65 -65 188
-173 208 -184 9 -5 22 -14 27 -20 13 -16 134 -96 145 -96 5 0 10 -4 12 -9 4
-11 49 -38 141 -85 38 -19 75 -40 83 -47 8 -6 14 -9 14 -6 0 3 30 -8 68 -24
88 -40 129 -57 160 -66 6 -1 18 -5 25 -6 16 -5 34 -11 77 -26 19 -7 44 -14 55
-16 56 -10 81 -16 95 -21 8 -3 31 -8 50 -10 19 -2 46 -7 60 -10 131 -31 508
-37 646 -10 12 2 39 7 60 11 22 3 53 8 69 12 17 3 37 6 45 7 9 1 20 5 25 8 6
3 28 9 50 13 45 9 54 12 58 15 1 1 10 3 19 5 23 4 88 24 113 35 11 4 47 18 80
30 66 25 281 130 323 159 15 9 61 40 102 67 217 143 426 350 583 576 26 38 47
70 47 73 0 2 12 21 26 42 37 54 125 233 163 333 19 47 38 93 43 103 5 11 7 21
4 24 -3 3 1 18 10 34 8 16 14 31 14 34 0 3 0 6 1 8 9 30 48 208 54 252 4 22 8
51 10 65 18 115 23 346 11 470 -12 122 -16 155 -22 180 -4 14 -8 34 -9 45 -6
42 -15 82 -30 140 -9 33 -18 65 -19 70 -2 6 -5 17 -9 25 -3 8 -11 36 -17 63
-7 26 -16 47 -20 47 -4 0 -7 6 -7 13 0 26 -123 301 -142 317 -3 3 -13 19 -22
35 -26 50 -43 79 -57 93 -6 7 -17 23 -24 35 -13 25 -132 181 -163 214 -139
148 -199 204 -317 294 -100 76 -212 151 -224 149 -4 -1 -10 2 -13 7 -8 13
-214 116 -276 138 -27 10 -55 22 -61 27 -6 4 -19 9 -30 11 -10 2 -26 7 -34 10
-40 16 -212 63 -268 73 -158 28 -208 34 -322 39 -52 2 -102 6 -111 9 -8 4 -18
4 -21 0z"/>
<path d="M9658 9355 c-2 -1 -36 -5 -76 -9 -41 -3 -77 -8 -80 -10 -4 -2 -29 -6
-57 -10 -27 -3 -59 -8 -70 -11 -27 -6 -135 -34 -160 -41 -11 -3 -27 -7 -35 -9
-8 -1 -23 -5 -32 -9 -9 -4 -22 -9 -30 -10 -7 -2 -22 -7 -33 -11 -11 -4 -51
-20 -90 -35 -88 -35 -292 -135 -330 -163 -5 -4 -48 -33 -95 -64 -47 -31 -87
-59 -90 -63 -3 -3 -15 -13 -28 -22 -91 -62 -284 -257 -395 -399 -40 -52 -137
-199 -137 -209 0 -5 -5 -10 -12 -10 -6 0 -8 -3 -5 -6 3 -4 -3 -18 -13 -32 -11
-13 -20 -31 -20 -38 0 -8 -5 -14 -12 -14 -6 0 -9 -3 -5 -6 3 -3 -7 -27 -22
-52 -26 -45 -46 -98 -43 -114 1 -5 -1 -8 -6 -8 -4 0 -12 -12 -18 -27 -16 -40
-27 -67 -29 -75 -2 -5 -3 -9 -5 -10 -1 -2 -3 -11 -5 -21 -2 -10 -7 -26 -11
-35 -4 -9 -8 -21 -10 -27 -1 -5 -14 -53 -28 -105 -24 -92 -28 -109 -41 -194
-4 -21 -9 -48 -11 -60 -23 -113 -23 -478 0 -602 2 -11 7 -39 11 -64 12 -72 13
-80 41 -190 15 -58 31 -111 37 -117 5 -7 7 -13 4 -13 -3 0 1 -16 9 -35 8 -19
15 -38 15 -42 9 -60 174 -384 229 -450 5 -7 10 -16 10 -21 0 -5 9 -17 20 -27
11 -10 17 -21 15 -25 -3 -5 -2 -10 3 -12 4 -1 36 -39 72 -83 85 -107 335 -355
357 -355 4 0 23 -14 41 -31 17 -16 32 -27 32 -24 0 3 10 -4 23 -15 12 -12 34
-28 49 -36 26 -14 92 -55 113 -71 12 -10 241 -123 248 -123 2 0 20 -6 38 -14
19 -8 37 -14 42 -15 4 0 20 -7 37 -16 16 -8 38 -15 50 -15 11 0 20 -4 20 -8 0
-5 6 -9 13 -9 6 -1 57 -13 112 -27 55 -15 116 -29 135 -32 19 -3 49 -8 65 -11
223 -40 577 -35 774 13 9 2 35 8 59 14 24 6 47 8 52 5 5 -3 11 -1 14 4 3 5 23
12 43 16 21 4 42 10 48 13 5 4 17 8 25 9 8 1 62 21 120 43 58 22 110 42 115
43 6 1 12 4 15 7 3 3 48 27 100 54 98 50 168 88 185 103 6 4 30 22 55 38 89
59 250 193 250 207 0 6 2 9 5 6 3 -3 29 18 58 48 103 104 116 120 245 289 4 6
23 35 42 65 19 30 37 57 40 60 21 20 164 319 170 358 1 4 6 13 12 20 6 6 8 12
4 12 -4 0 0 14 9 30 9 17 13 30 9 30 -4 0 -2 6 4 13 6 7 13 24 15 37 2 14 7
32 10 40 8 20 25 88 32 129 3 19 8 37 10 41 2 3 7 29 11 56 3 27 8 58 10 69
27 139 24 581 -5 658 -5 12 -8 24 -8 27 1 15 -15 109 -23 135 -5 17 -11 41
-14 55 -5 28 -61 204 -75 235 -5 11 -25 55 -45 98 -19 42 -32 77 -28 77 4 0 3
4 -3 8 -5 4 -25 36 -44 72 -32 60 -157 259 -171 270 -3 3 -19 23 -36 45 -70
95 -213 241 -334 340 -47 38 -88 74 -92 80 -5 6 -8 7 -8 0 0 -7 -3 -7 -8 0
-11 16 -129 95 -141 95 -6 0 -11 5 -11 10 0 6 -6 10 -14 10 -8 0 -16 3 -18 8
-4 9 -242 126 -293 143 -22 8 -42 16 -45 19 -5 5 -16 8 -52 15 -9 2 -26 9 -38
15 -12 6 -34 14 -48 16 -15 3 -38 9 -52 14 -34 13 -197 47 -295 61 -69 10
-438 22 -447 14z"/>
<path d="M4657 4484 c-2 -2 -33 -6 -69 -9 -36 -3 -76 -8 -89 -10 -13 -3 -37
-7 -54 -10 -16 -3 -51 -10 -76 -16 -26 -6 -53 -11 -60 -12 -8 -2 -18 -5 -24
-8 -5 -4 -18 -5 -27 -4 -10 2 -18 -1 -18 -6 0 -5 -9 -9 -20 -9 -20 0 -204 -64
-275 -96 -22 -10 -43 -17 -47 -16 -5 1 -8 -3 -8 -9 0 -5 -4 -7 -10 -4 -5 3
-10 3 -10 -2 0 -9 -48 -33 -67 -33 -7 0 -13 -4 -13 -8 0 -5 -16 -16 -36 -26
-121 -57 -342 -222 -469 -351 -167 -168 -224 -241 -366 -470 -82 -131 -205
-445 -235 -598 -2 -10 -5 -26 -8 -35 -3 -9 -7 -35 -11 -57 -3 -22 -8 -47 -10
-55 -16 -52 -28 -236 -26 -395 2 -113 7 -200 11 -200 1 0 3 -18 5 -40 4 -34
19 -130 31 -185 1 -8 10 -42 19 -75 9 -33 18 -67 20 -75 17 -75 94 -270 149
-377 14 -29 25 -55 24 -59 -2 -3 5 -10 15 -15 9 -6 17 -15 17 -22 0 -7 16 -36
35 -66 19 -29 35 -55 35 -57 0 -8 84 -119 93 -122 4 -2 7 -8 7 -13 0 -6 10
-20 23 -33 12 -13 36 -41 54 -62 34 -42 181 -194 188 -194 4 0 63 -52 107 -93
10 -9 18 -15 18 -12 0 5 29 -18 55 -42 8 -7 15 -13 18 -13 2 0 42 -25 88 -55
84 -56 339 -190 339 -179 0 4 7 0 17 -7 9 -8 18 -13 20 -11 2 1 18 -4 36 -12
38 -17 230 -77 260 -81 12 -2 33 -6 47 -9 77 -18 212 -37 271 -39 38 -1 69 -4
69 -7 0 -7 263 -4 335 4 127 13 320 49 379 72 21 8 41 12 44 10 3 -3 10 -2 16
3 6 4 43 19 81 31 83 27 124 45 265 113 104 51 312 182 360 228 14 13 28 24
30 24 25 1 282 262 355 360 17 22 35 45 41 52 6 6 26 35 45 65 18 29 36 55 39
58 8 8 39 62 63 110 12 25 24 47 27 50 9 8 64 124 65 135 0 6 3 12 6 15 7 6
53 129 74 200 9 30 19 62 23 70 3 8 6 18 7 23 2 4 3 8 4 10 2 1 5 16 7 32 9
49 11 59 17 75 4 8 9 33 11 55 3 22 5 40 6 40 1 0 4 20 6 45 3 25 9 61 13 81
9 39 7 418 -2 490 -3 25 -9 61 -12 80 -4 19 -8 46 -10 61 -2 15 -8 44 -14 65
-5 21 -12 52 -14 68 -3 17 -10 42 -16 58 -6 15 -13 38 -15 50 -7 35 -67 201
-77 212 -5 5 -9 17 -9 27 0 10 -5 18 -12 18 -6 0 -9 3 -5 6 12 12 -158 317
-205 368 -10 11 -18 25 -18 32 0 7 -4 14 -9 16 -4 2 -35 37 -69 78 -59 74
-160 180 -238 251 -99 90 -297 230 -395 279 -24 13 -47 27 -50 32 -3 5 -10 10
-15 10 -5 1 -36 13 -69 28 -82 37 -118 53 -130 56 -5 1 -47 16 -92 33 -46 17
-83 28 -83 26 0 -3 -8 -1 -18 4 -11 6 -30 12 -43 15 -13 3 -42 10 -64 16 -22
6 -53 13 -70 15 -16 2 -39 6 -50 9 -11 2 -45 7 -75 11 -30 4 -66 9 -80 12 -28
6 -398 12 -403 7z"/>
<path d="M9665 4470 c-22 -3 -59 -6 -83 -5 -23 0 -42 -3 -42 -6 0 -3 -15 -6
-32 -7 -18 -1 -55 -6 -83 -12 -27 -6 -59 -12 -70 -12 -11 -1 -24 -5 -30 -8 -5
-4 -18 -6 -27 -5 -10 2 -18 0 -18 -4 0 -4 -10 -8 -22 -9 -25 -2 -154 -42 -203
-63 -16 -7 -33 -13 -37 -14 -5 -2 -10 -4 -13 -5 -3 -1 -8 -3 -12 -5 -47 -12
-217 -97 -315 -156 -45 -27 -85 -49 -89 -49 -4 0 -9 -4 -11 -8 -1 -5 -19 -19
-38 -33 -153 -105 -374 -315 -473 -450 -59 -81 -106 -149 -127 -184 -13 -22
-29 -43 -34 -47 -6 -4 -7 -8 -3 -8 5 0 0 -12 -11 -27 -10 -16 -36 -64 -57
-108 -21 -44 -42 -87 -46 -95 -11 -19 -11 -19 -44 -108 -15 -39 -28 -78 -29
-85 -2 -6 -6 -19 -9 -27 -29 -68 -84 -342 -95 -470 -13 -165 -3 -442 21 -560
32 -155 51 -231 82 -320 19 -58 37 -109 39 -115 13 -40 35 -89 74 -168 25 -51
45 -95 44 -99 -1 -5 3 -8 8 -8 6 0 10 -7 10 -15 0 -8 5 -15 10 -15 6 0 10 -5
10 -11 0 -6 14 -31 30 -56 17 -24 30 -48 30 -52 0 -4 9 -16 20 -26 11 -10 20
-24 20 -31 0 -7 3 -14 8 -16 4 -2 31 -34 61 -73 76 -98 160 -187 263 -280 62
-56 69 -61 153 -125 33 -25 62 -48 63 -52 2 -5 8 -8 13 -8 4 0 39 -20 76 -44
141 -90 340 -181 518 -237 75 -23 230 -60 270 -64 17 -2 30 -4 30 -5 0 -3 40
-9 110 -17 143 -15 580 -2 580 17 0 1 20 3 45 5 25 2 45 4 45 5 0 1 7 3 15 5
8 2 44 11 80 20 36 9 72 18 80 20 8 2 40 12 70 23 30 11 60 20 65 22 16 4 59
22 77 31 10 5 22 9 28 9 21 0 297 140 309 157 3 4 19 15 36 23 28 14 119 79
190 135 139 109 284 258 388 399 21 28 45 59 53 69 7 9 14 22 14 27 0 6 5 10
10 10 6 0 10 5 10 11 0 6 14 31 32 56 37 54 158 295 158 315 0 8 5 19 11 25 6
6 12 19 14 29 2 11 4 20 5 22 2 1 3 5 5 10 1 4 5 16 9 27 26 68 38 100 36 100
-1 0 3 20 10 45 7 25 14 53 16 63 2 10 5 26 8 35 50 166 67 633 30 814 -2 13
-7 38 -10 57 -3 18 -8 42 -10 52 -2 11 -6 29 -9 42 -2 12 -8 36 -12 52 -4 17
-7 32 -8 35 -1 3 -9 32 -20 65 -10 33 -19 65 -20 70 -8 36 -78 199 -128 299
-61 122 -211 356 -228 356 -5 0 -9 6 -9 13 0 13 -53 74 -164 187 -90 92 -100
100 -206 184 -47 37 -90 71 -97 76 -7 6 -24 15 -38 22 -14 6 -25 15 -25 20 0
4 -5 8 -10 8 -6 0 -35 16 -65 35 -138 88 -439 214 -573 240 -13 2 -33 7 -45
11 -12 4 -31 9 -42 11 -39 5 -74 11 -102 17 -110 24 -416 39 -518 26z"/>
</g>
</svg>
