<?xml version="1.0" encoding="UTF-8"?>
<svg width="19px" height="16px" viewBox="0 0 19 16" version="1.1" xmlns="http://www.w3.org/2000/svg" xmlns:xlink="http://www.w3.org/1999/xlink">
    <!-- Generator: Sketch 60.1 (88133) - https://sketch.com -->
    <title>filter</title>
    <desc>Created with Sketch.</desc>
    <g id="App" stroke="none" stroke-width="1" fill="none" fill-rule="evenodd">
        <g id="Search---iPhone-11" transform="translate(-370.000000, -256.000000)" fill-rule="nonzero">
            <g id="top-bar" transform="translate(12.000000, 242.000000)">
                <g id="filter" transform="translate(358.000000, 14.000000)">
                    <path d="M17.7142857,1.14285714 L10.2857143,1.14285714 L10.2857143,3.42857143 L17.7142857,3.42857143 C18.029877,3.42857143 18.2857143,3.17273414 18.2857143,2.85714286 L18.2857143,1.71428571 C18.2857143,1.39869443 18.029877,1.14285714 17.7142857,1.14285714 Z M0.571428571,3.42857143 L6.85714286,3.42857143 L6.85714286,1.14285714 L0.571428571,1.14285714 C0.255837286,1.14285714 0,1.39869443 0,1.71428571 L0,2.85714286 C0,3.17273414 0.255837286,3.42857143 0.571428571,3.42857143 Z M0.571428571,9.14285714 L11.4285714,9.14285714 L11.4285714,6.85714286 L0.571428571,6.85714286 C0.255837286,6.85714286 0,7.11298014 0,7.42857143 L0,8.57142857 C0,8.88701986 0.255837286,9.14285714 0.571428571,9.14285714 Z M17.7142857,6.85714286 L14.8571429,6.85714286 L14.8571429,9.14285714 L17.7142857,9.14285714 C18.029877,9.14285714 18.2857143,8.88701986 18.2857143,8.57142857 L18.2857143,7.42857143 C18.2857143,7.11298014 18.029877,6.85714286 17.7142857,6.85714286 Z M17.7142857,12.5714286 L5.71428571,12.5714286 L5.71428571,14.8571429 L17.7142857,14.8571429 C18.029877,14.8571429 18.2857143,14.6013056 18.2857143,14.2857143 L18.2857143,13.1428571 C18.2857143,12.8272659 18.029877,12.5714286 17.7142857,12.5714286 Z M0,13.1428571 L0,14.2857143 C0,14.6013056 0.255837286,14.8571429 0.571428571,14.8571429 L2.28571429,14.8571429 L2.28571429,12.5714286 L0.571428571,12.5714286 C0.255837286,12.5714286 0,12.8272659 0,13.1428571 Z" id="Shape" fill="#DFDAD8"></path>
                    <path d="M9.71428571,0 L8.57142857,0 C8.25583729,0 8,0.255837286 8,0.571428571 L8,4 C8,4.31559129 8.25583729,4.57142857 8.57142857,4.57142857 L9.71428571,4.57142857 C10.029877,4.57142857 10.2857143,4.31559129 10.2857143,4 L10.2857143,0.571428571 C10.2857143,0.255837286 10.029877,0 9.71428571,0 Z M14.2857143,5.71428571 L13.1428571,5.71428571 C12.8272659,5.71428571 12.5714286,5.970123 12.5714286,6.28571429 L12.5714286,9.71428571 C12.5714286,10.029877 12.8272659,10.2857143 13.1428571,10.2857143 L14.2857143,10.2857143 C14.6013056,10.2857143 14.8571429,10.029877 14.8571429,9.71428571 L14.8571429,6.28571429 C14.8571429,5.970123 14.6013056,5.71428571 14.2857143,5.71428571 Z M5.14285714,11.4285714 L4,11.4285714 C3.68440871,11.4285714 3.42857143,11.6844087 3.42857143,12 L3.42857143,15.4285714 C3.42857143,15.7441627 3.68440871,16 4,16 L5.14285714,16 C5.45844843,16 5.71428571,15.7441627 5.71428571,15.4285714 L5.71428571,12 C5.71428571,11.6844087 5.45844843,11.4285714 5.14285714,11.4285714 Z" id="Shape" fill="#537871"></path>
                </g>
            </g>
        </g>
    </g>
</svg>