<?xml version="1.0" encoding="UTF-8"?>
<svg width="24px" height="24px" viewBox="0 0 24 24" version="1.1" xmlns="http://www.w3.org/2000/svg" xmlns:xlink="http://www.w3.org/1999/xlink">
    <!-- Generator: Sketch 60.1 (88133) - https://sketch.com -->
    <title>interface</title>
    <desc>Created with Sketch.</desc>
    <g id="App" stroke="none" stroke-width="1" fill="none" fill-rule="evenodd" fill-opacity="0.5">
        <g id="Search---iPhone-11" transform="translate(-12.000000, -56.000000)" fill="#2C3340" fill-rule="nonzero">
            <g id="interface" transform="translate(12.000000, 56.000000)">
                <path d="M12.7530937,24 L11.2468594,24 C10.028625,24 9.03745312,23.008875 9.03745312,21.7906406 L9.03745312,21.2810625 C8.51953125,21.1155938 8.01632812,20.9067188 7.53290625,20.6565469 L7.17178125,21.0176719 C6.29714062,21.8933906 4.89609375,21.8677031 4.04685937,21.0173438 L2.98228125,19.9528125 C2.13154687,19.1030156 2.10707812,17.7024375 2.9825625,16.8278906 L3.34340625,16.4670469 C3.09323437,15.983625 2.88440625,15.4805156 2.71889062,14.9625 L2.20935937,14.9625 C0.991171875,14.9625 -2.84217094e-14,13.971375 -2.84217094e-14,12.7531406 L-2.84217094e-14,11.2468594 C-2.84217094e-14,10.028625 0.991171875,9.0375 2.20940625,9.0375 L2.7189375,9.0375 C2.88445312,8.51953125 3.09328125,8.016375 3.34345312,7.53295313 L2.98232812,7.171875 C2.10735937,6.29784375 2.1315,4.897125 2.98260937,4.04695313 L4.04728125,2.98232813 C4.89848437,2.12995313 6.29920312,2.10867188 7.17215625,2.98260938 L7.53295312,3.34340625 C8.016375,3.09328125 8.51957812,2.88440625 9.0375,2.71889063 L9.0375,2.20935938 C9.0375,0.991125 10.028625,5.68434189e-14 11.2469062,5.68434189e-14 L12.7531406,5.68434189e-14 C13.971375,5.68434189e-14 14.9625,0.991125 14.9625,2.20935938 L14.9625,2.7189375 C15.4804219,2.88440625 15.983625,3.09328125 16.4670469,3.34345313 L16.8281719,2.98232813 C17.7028125,2.10660938 19.1038594,2.13229688 19.9530937,2.98265625 L21.0176719,4.0471875 C21.8684062,4.89698438 21.892875,6.2975625 21.0173906,7.17210938 L20.6565469,7.53295313 C20.9067187,8.016375 21.1155469,8.51948438 21.2810625,9.0375 L21.7905937,9.0375 C23.0088281,9.0375 24,10.028625 24,11.2468594 L24,12.7531406 C24,13.971375 23.0088281,14.9625 21.7905937,14.9625 L21.2810625,14.9625 C21.1155469,15.4804688 20.9067187,15.983625 20.6565469,16.4670469 L21.0176719,16.8281719 C21.8926406,17.7022031 21.8685,19.1029219 21.0173906,19.9530938 L19.9527187,21.0177188 C19.1015156,21.8700938 17.7007969,21.891375 16.8278437,21.0174375 L16.4670469,20.6566406 C15.983625,20.9067656 15.4804219,21.1156406 14.9625,21.2811563 L14.9625,21.7907344 C14.9625,23.008875 13.971375,24 12.7530937,24 Z M7.76798437,19.1798438 C8.4395625,19.5770156 9.162375,19.8770625 9.9163125,20.0716406 C10.2268125,20.15175 10.44375,20.4317813 10.44375,20.7524531 L10.44375,21.7906406 C10.44375,22.2334688 10.8040781,22.59375 11.2469062,22.59375 L12.7531406,22.59375 C13.1959687,22.59375 13.5562969,22.2334688 13.5562969,21.7906406 L13.5562969,20.7524531 C13.5562969,20.4317813 13.7732344,20.15175 14.0837344,20.0716406 C14.8376719,19.8770625 15.5604844,19.5770156 16.2320625,19.1798438 C16.5083906,19.0164375 16.8601875,19.060875 17.0872031,19.2878906 L17.8225781,20.0233125 C18.1396406,20.34075 18.6487969,20.3333906 18.9580781,20.0236406 L20.0234062,18.9583594 C20.3319375,18.6502031 20.34225,18.1409531 20.0236875,17.8228125 L19.2879844,17.0871094 C19.0610156,16.8601406 19.0165781,16.5082969 19.1799375,16.2320156 C19.5771094,15.5604844 19.8771094,14.8376719 20.0716875,14.0836875 C20.1518437,13.7731875 20.431875,13.5562969 20.7525,13.5562969 L21.7906406,13.5562969 C22.2334687,13.5562969 22.5937969,13.1960156 22.5937969,12.7531875 L22.5937969,11.2469063 C22.5937969,10.8040781 22.2334687,10.4437969 21.7906406,10.4437969 L20.7525,10.4437969 C20.4318281,10.4437969 20.1518437,10.2268594 20.0716875,9.91640625 C19.8771094,9.16242188 19.5770625,8.43960938 19.1799375,7.76807813 C19.0165781,7.49179688 19.0610156,7.13995313 19.2879844,6.91298438 L20.0234062,6.1775625 C20.3413125,5.86003125 20.3330156,5.35096875 20.0236875,5.04201563 L18.9584531,3.97678125 C18.6496875,3.66759375 18.1404375,3.65854688 17.8229062,3.9765 L17.08725,4.71220313 C16.8602812,4.93921875 16.5083437,4.98365625 16.2321094,4.82025 C15.5605312,4.42307813 14.8377187,4.12303125 14.0837812,3.92845313 C13.7732812,3.84834375 13.5563437,3.5683125 13.5563437,3.24764063 L13.5563437,2.20935938 C13.5563437,1.76653125 13.1960156,1.40625 12.7531875,1.40625 L11.2469531,1.40625 C10.804125,1.40625 10.4437969,1.76653125 10.4437969,2.20935938 L10.4437969,3.24754688 C10.4437969,3.56821875 10.2268594,3.84825 9.91635937,3.92835938 C9.16242187,4.1229375 8.43960937,4.42298438 7.76803125,4.82015625 C7.49165625,4.98351563 7.13985937,4.93907813 6.91289062,4.71210938 L6.17751562,3.9766875 C5.86045312,3.65925 5.35125,3.66660938 5.04201562,3.97635938 L3.9766875,5.04164063 C3.66815625,5.34979688 3.65784375,5.859 3.97640625,6.1771875 L4.71210937,6.91289063 C4.93907812,7.13985938 4.98351562,7.49170313 4.82015625,7.76798438 C4.42298437,8.43951563 4.12298437,9.16232813 3.92840625,9.9163125 C3.84825,10.2268125 3.56821875,10.4437031 3.24759375,10.4437031 L2.20940625,10.4437031 C1.76657812,10.44375 1.40625,10.8040313 1.40625,11.2468594 L1.40625,12.7531406 C1.40625,13.1959688 1.76657812,13.55625 2.20940625,13.55625 L3.24754687,13.55625 C3.56821875,13.55625 3.84820312,13.7731875 3.92835937,14.0836406 C4.1229375,14.837625 4.42298437,15.5604375 4.82010937,16.2319688 C4.98346875,16.50825 4.93903125,16.8600938 4.7120625,17.0870625 L3.97664062,17.8224844 C3.65873437,18.1400156 3.66703125,18.6490781 3.97635937,18.9580313 L5.04159375,20.0232656 C5.35035937,20.3324531 5.85960937,20.3415 6.17714062,20.0235469 L6.91279687,19.2878438 C7.08004687,19.1206406 7.428,18.97875 7.76798437,19.1798438 L7.76798437,19.1798438 Z" id="Shape"></path>
                <path d="M12,17.221875 C9.12060938,17.221875 6.778125,14.8793438 6.778125,12 C6.778125,9.12065625 9.12060938,6.778125 12,6.778125 C14.8793906,6.778125 17.221875,9.12065625 17.221875,12 C17.221875,14.8793438 14.8793906,17.221875 12,17.221875 Z M12,8.184375 C9.89601563,8.184375 8.184375,9.8960625 8.184375,12 C8.184375,14.1039375 9.8960625,15.815625 12,15.815625 C14.1039375,15.815625 15.815625,14.1039375 15.815625,12 C15.815625,9.8960625 14.1039844,8.184375 12,8.184375 L12,8.184375 Z" id="Shape"></path>
            </g>
        </g>
    </g>
</svg>